<svg width="199" height="49" viewBox="0 0 199 49" fill="none" xmlns="http://www.w3.org/2000/svg">
<path d="M22.1107 3C34.3227 3 44.2218 13.2971 44.2218 26V42.1C44.2218 43.93 43.523 45.685 42.279 46.979C41.035 48.273 39.3477 49 37.5885 49H23.2162V38.9099C23.2162 36.6076 23.3511 34.2225 24.512 32.2629C25.343 30.8586 26.4548 29.6566 27.7718 28.7385C29.0888 27.8204 30.5801 27.2077 32.1447 26.9418L32.5682 26.8705C32.7428 26.8085 32.8943 26.6912 33.0016 26.5351C33.1089 26.379 33.1665 26.1919 33.1665 26C33.1665 25.8081 33.1089 25.621 33.0016 25.4649C32.8943 25.3088 32.7428 25.1915 32.5682 25.1294L32.1447 25.0581C29.8586 24.6697 27.7476 23.5441 26.1096 21.8403C24.4717 20.1365 23.3897 17.9406 23.0162 15.5626L22.9476 15.1222C22.8879 14.9406 22.7752 14.7829 22.6251 14.6713C22.475 14.5597 22.2952 14.4997 22.1107 14.4997C21.9262 14.4997 21.7464 14.5597 21.5964 14.6713C21.4463 14.7829 21.3335 14.9406 21.2738 15.1222L21.2053 15.5626C20.9499 17.1902 20.3608 18.7415 19.4782 20.1114C18.5956 21.4814 17.44 22.6378 16.0898 23.5022C14.206 24.7097 11.913 24.85 9.69972 24.85H0.0261536C0.604359 12.6818 10.2702 3 22.1107 3Z" fill="#20B2AA"/>
<path d="M0 27.15H9.70014C11.9135 27.15 14.2064 27.2903 16.0903 28.4978C17.5629 29.4417 18.8024 30.7311 19.7098 32.2629C20.8707 34.2225 21.0056 36.6076 21.0056 38.9099V49H6.63333C4.87407 49 3.18685 48.273 1.94286 46.979C0.698867 45.685 0 43.93 0 42.1V27.15ZM44.2222 5.3C44.2222 5.91 43.9893 6.49501 43.5746 6.92635C43.1599 7.35768 42.5975 7.6 42.0111 7.6C41.4247 7.6 40.8623 7.35768 40.4477 6.92635C40.0329 6.49501 39.8 5.91 39.8 5.3C39.8 4.69 40.0329 4.10499 40.4477 3.67365C40.8623 3.24232 41.4247 3 42.0111 3C42.5975 3 43.1599 3.24232 43.5746 3.67365C43.9893 4.10499 44.2222 4.69 44.2222 5.3Z" fill="#20B2AA"/>
<path d="M58.0729 48.676V47.224H60.1379C60.6608 47.224 61.1184 47.112 61.5107 46.888C61.9029 46.656 62.2067 46.332 62.422 45.916C62.6451 45.5 62.7566 45.008 62.7566 44.44C62.7566 43.888 62.6451 43.408 62.422 43C62.199 42.584 61.8914 42.264 61.4991 42.04C61.1069 41.808 60.6531 41.692 60.1379 41.692H58.0383V40.24H60.1609C60.7608 40.24 61.3146 40.344 61.8221 40.552C62.3374 40.76 62.7835 41.056 63.1604 41.44C63.5449 41.816 63.841 42.26 64.0486 42.772C64.264 43.284 64.3717 43.844 64.3717 44.452C64.3717 45.06 64.264 45.624 64.0486 46.144C63.841 46.656 63.5487 47.104 63.1719 47.488C62.795 47.864 62.349 48.156 61.8337 48.364C61.3261 48.572 60.7762 48.676 60.184 48.676H58.0729ZM57 48.676V40.24H58.5689V48.676H57ZM67.7871 48.796C67.2796 48.796 66.8219 48.664 66.4143 48.4C66.0067 48.136 65.6876 47.776 65.4568 47.32C65.2261 46.864 65.1107 46.352 65.1107 45.784C65.1107 45.208 65.2261 44.692 65.4568 44.236C65.6876 43.78 66.0067 43.42 66.4143 43.156C66.8219 42.892 67.2796 42.76 67.7871 42.76C68.1871 42.76 68.5447 42.844 68.86 43.012C69.1753 43.18 69.4253 43.416 69.6099 43.72C69.8021 44.016 69.906 44.352 69.9214 44.728V46.816C69.906 47.2 69.8021 47.54 69.6099 47.836C69.4253 48.132 69.1753 48.368 68.86 48.544C68.5447 48.712 68.1871 48.796 67.7871 48.796ZM68.064 47.344C68.487 47.344 68.8293 47.2 69.0907 46.912C69.3522 46.616 69.483 46.236 69.483 45.772C69.483 45.468 69.4214 45.2 69.2984 44.968C69.183 44.728 69.0177 44.544 68.8023 44.416C68.5947 44.28 68.3486 44.212 68.064 44.212C67.7871 44.212 67.541 44.28 67.3257 44.416C67.118 44.544 66.9527 44.728 66.8296 44.968C66.7143 45.2 66.6566 45.468 66.6566 45.772C66.6566 46.084 66.7143 46.36 66.8296 46.6C66.9527 46.832 67.118 47.016 67.3257 47.152C67.541 47.28 67.7871 47.344 68.064 47.344ZM69.4022 48.676V47.116L69.6445 45.7L69.4022 44.308V42.88H70.9019V48.676H69.4022ZM74.1539 48.808C73.8386 48.808 73.5271 48.764 73.2195 48.676C72.9195 48.588 72.6426 48.468 72.3889 48.316C72.1351 48.156 71.9159 47.964 71.7313 47.74L72.6311 46.792C72.8234 47.016 73.0464 47.184 73.3002 47.296C73.554 47.408 73.8347 47.464 74.1424 47.464C74.3885 47.464 74.573 47.428 74.6961 47.356C74.8268 47.284 74.8922 47.176 74.8922 47.032C74.8922 46.872 74.823 46.748 74.6846 46.66C74.5538 46.572 74.3808 46.5 74.1654 46.444C73.9501 46.38 73.7232 46.312 73.4848 46.24C73.2541 46.16 73.031 46.06 72.8157 45.94C72.6004 45.812 72.4235 45.64 72.285 45.424C72.1543 45.2 72.0889 44.912 72.0889 44.56C72.0889 44.192 72.1735 43.872 72.3427 43.6C72.5196 43.328 72.7696 43.116 73.0926 42.964C73.4156 42.812 73.7963 42.736 74.2346 42.736C74.6961 42.736 75.1114 42.82 75.4806 42.988C75.8574 43.156 76.1689 43.408 76.415 43.744L75.5036 44.692C75.3344 44.476 75.1422 44.32 74.9268 44.224C74.7192 44.128 74.4923 44.08 74.2462 44.08C74.0232 44.08 73.8501 44.116 73.7271 44.188C73.6117 44.26 73.554 44.36 73.554 44.488C73.554 44.632 73.6194 44.744 73.7501 44.824C73.8886 44.904 74.0655 44.976 74.2808 45.04C74.4961 45.096 74.7192 45.164 74.9499 45.244C75.1883 45.316 75.4113 45.42 75.619 45.556C75.8343 45.692 76.0074 45.872 76.1381 46.096C76.2766 46.32 76.3458 46.608 76.3458 46.96C76.3458 47.528 76.1497 47.98 75.7574 48.316C75.3652 48.644 74.8307 48.808 74.1539 48.808ZM81.1142 48.676V45.352C81.1142 45.008 81.0104 44.728 80.8027 44.512C80.5951 44.296 80.3259 44.188 79.9952 44.188C79.7798 44.188 79.5876 44.236 79.4184 44.332C79.2492 44.428 79.1146 44.564 79.0146 44.74C78.9223 44.916 78.8762 45.12 78.8762 45.352L78.2878 45.04C78.2878 44.584 78.3801 44.188 78.5647 43.852C78.7493 43.508 79.0031 43.24 79.3261 43.048C79.6568 42.856 80.0336 42.76 80.4566 42.76C80.8796 42.76 81.2526 42.856 81.5756 43.048C81.9063 43.24 82.164 43.504 82.3486 43.84C82.5331 44.176 82.6254 44.564 82.6254 45.004V48.676H81.1142ZM77.3649 48.676V40H78.8762V48.676H77.3649ZM86.9344 48.796C86.5345 48.796 86.173 48.708 85.85 48.532C85.527 48.356 85.2693 48.116 85.0771 47.812C84.8848 47.508 84.781 47.168 84.7656 46.792V44.728C84.781 44.352 84.8848 44.016 85.0771 43.72C85.277 43.416 85.5385 43.18 85.8615 43.012C86.1846 42.844 86.5422 42.76 86.9344 42.76C87.4497 42.76 87.9111 42.892 88.3188 43.156C88.7264 43.42 89.0455 43.78 89.2763 44.236C89.5147 44.692 89.6339 45.208 89.6339 45.784C89.6339 46.352 89.5147 46.864 89.2763 47.32C89.0455 47.776 88.7264 48.136 88.3188 48.4C87.9111 48.664 87.4497 48.796 86.9344 48.796ZM86.6806 47.344C86.9575 47.344 87.1997 47.28 87.4074 47.152C87.6227 47.016 87.7881 46.832 87.9035 46.6C88.0265 46.36 88.088 46.084 88.088 45.772C88.088 45.468 88.0265 45.2 87.9035 44.968C87.7881 44.728 87.6227 44.544 87.4074 44.416C87.192 44.28 86.9459 44.212 86.6691 44.212C86.3922 44.212 86.1461 44.28 85.9308 44.416C85.7231 44.544 85.5578 44.728 85.4347 44.968C85.3193 45.2 85.2617 45.468 85.2617 45.772C85.2617 46.084 85.3193 46.36 85.4347 46.6C85.5578 46.832 85.727 47.016 85.9423 47.152C86.1576 47.28 86.4037 47.344 86.6806 47.344ZM83.8427 48.676V40H85.3539V44.308L85.1002 45.7L85.3424 47.116V48.676H83.8427ZM93.2435 48.796C92.682 48.796 92.1745 48.664 91.7207 48.4C91.2746 48.128 90.917 47.764 90.6478 47.308C90.3863 46.844 90.2556 46.328 90.2556 45.76C90.2556 45.192 90.3863 44.684 90.6478 44.236C90.9093 43.78 91.2669 43.42 91.7207 43.156C92.1745 42.884 92.6782 42.748 93.2319 42.748C93.8011 42.748 94.3087 42.884 94.7547 43.156C95.2085 43.42 95.5661 43.78 95.8276 44.236C96.0891 44.684 96.2198 45.192 96.2198 45.76C96.2198 46.328 96.0891 46.844 95.8276 47.308C95.5661 47.764 95.2085 48.128 94.7547 48.4C94.3087 48.664 93.8049 48.796 93.2435 48.796ZM93.2319 47.332C93.5165 47.332 93.7664 47.268 93.9818 47.14C94.2048 47.004 94.374 46.82 94.4894 46.588C94.6124 46.348 94.674 46.076 94.674 45.772C94.674 45.468 94.6124 45.2 94.4894 44.968C94.3663 44.736 94.1971 44.556 93.9818 44.428C93.7664 44.292 93.5165 44.224 93.2319 44.224C92.9551 44.224 92.709 44.292 92.4936 44.428C92.2783 44.556 92.1091 44.736 91.986 44.968C91.863 45.2 91.8014 45.468 91.8014 45.772C91.8014 46.076 91.863 46.348 91.986 46.588C92.1091 46.82 92.2783 47.004 92.4936 47.14C92.709 47.268 92.9551 47.332 93.2319 47.332ZM99.5235 48.796C99.0159 48.796 98.5583 48.664 98.1507 48.4C97.7431 48.136 97.4239 47.776 97.1932 47.32C96.9625 46.864 96.8471 46.352 96.8471 45.784C96.8471 45.208 96.9625 44.692 97.1932 44.236C97.4239 43.78 97.7431 43.42 98.1507 43.156C98.5583 42.892 99.0159 42.76 99.5235 42.76C99.9234 42.76 100.281 42.844 100.596 43.012C100.912 43.18 101.162 43.416 101.346 43.72C101.539 44.016 101.642 44.352 101.658 44.728V46.816C101.642 47.2 101.539 47.54 101.346 47.836C101.162 48.132 100.912 48.368 100.596 48.544C100.281 48.712 99.9234 48.796 99.5235 48.796ZM99.8004 47.344C100.223 47.344 100.566 47.2 100.827 46.912C101.089 46.616 101.219 46.236 101.219 45.772C101.219 45.468 101.158 45.2 101.035 44.968C100.919 44.728 100.754 44.544 100.539 44.416C100.331 44.28 100.085 44.212 99.8004 44.212C99.5235 44.212 99.2774 44.28 99.0621 44.416C98.8544 44.544 98.6891 44.728 98.566 44.968C98.4506 45.2 98.393 45.468 98.393 45.772C98.393 46.084 98.4506 46.36 98.566 46.6C98.6891 46.832 98.8544 47.016 99.0621 47.152C99.2774 47.28 99.5235 47.344 99.8004 47.344ZM101.139 48.676V47.116L101.381 45.7L101.139 44.308V42.88H102.638V48.676H101.139ZM103.975 48.676V42.88H105.486V48.676H103.975ZM105.486 45.472L104.897 45.064C104.967 44.352 105.167 43.792 105.497 43.384C105.828 42.968 106.305 42.76 106.928 42.76C107.197 42.76 107.439 42.808 107.655 42.904C107.87 42.992 108.066 43.14 108.243 43.348L107.297 44.476C107.212 44.38 107.109 44.308 106.986 44.26C106.87 44.212 106.736 44.188 106.582 44.188C106.259 44.188 105.993 44.296 105.786 44.512C105.586 44.72 105.486 45.04 105.486 45.472ZM110.969 48.796C110.454 48.796 109.993 48.664 109.585 48.4C109.177 48.136 108.854 47.776 108.616 47.32C108.385 46.864 108.27 46.352 108.27 45.784C108.27 45.208 108.385 44.692 108.616 44.236C108.854 43.78 109.174 43.42 109.573 43.156C109.981 42.892 110.446 42.76 110.969 42.76C111.369 42.76 111.727 42.844 112.042 43.012C112.365 43.18 112.623 43.416 112.815 43.72C113.015 44.016 113.123 44.352 113.138 44.728V46.792C113.123 47.168 113.019 47.508 112.827 47.812C112.634 48.116 112.377 48.356 112.054 48.532C111.731 48.708 111.369 48.796 110.969 48.796ZM111.223 47.344C111.508 47.344 111.754 47.28 111.961 47.152C112.177 47.016 112.342 46.832 112.458 46.6C112.581 46.36 112.642 46.084 112.642 45.772C112.642 45.468 112.581 45.2 112.458 44.968C112.342 44.728 112.177 44.544 111.961 44.416C111.754 44.28 111.512 44.212 111.235 44.212C110.95 44.212 110.7 44.28 110.485 44.416C110.277 44.552 110.112 44.736 109.989 44.968C109.873 45.2 109.816 45.468 109.816 45.772C109.816 46.084 109.873 46.36 109.989 46.6C110.112 46.832 110.281 47.016 110.496 47.152C110.712 47.28 110.954 47.344 111.223 47.344ZM114.061 48.676H112.561V47.116L112.804 45.7L112.55 44.308V40H114.061V48.676ZM118.967 45.544V44.212H120.847C121.093 44.212 121.316 44.16 121.516 44.056C121.716 43.952 121.874 43.804 121.989 43.612C122.105 43.412 122.162 43.172 122.162 42.892C122.162 42.62 122.105 42.384 121.989 42.184C121.874 41.984 121.716 41.832 121.516 41.728C121.316 41.624 121.093 41.572 120.847 41.572H118.967V40.24H121.009C121.524 40.24 121.986 40.348 122.393 40.564C122.808 40.78 123.135 41.088 123.374 41.488C123.612 41.88 123.731 42.348 123.731 42.892C123.731 43.436 123.612 43.908 123.374 44.308C123.135 44.7 122.808 45.004 122.393 45.22C121.986 45.436 121.524 45.544 121.009 45.544H118.967ZM117.813 48.676V40.24H119.382V48.676H117.813ZM126.832 48.796C126.324 48.796 125.866 48.664 125.459 48.4C125.051 48.136 124.732 47.776 124.501 47.32C124.271 46.864 124.155 46.352 124.155 45.784C124.155 45.208 124.271 44.692 124.501 44.236C124.732 43.78 125.051 43.42 125.459 43.156C125.866 42.892 126.324 42.76 126.832 42.76C127.232 42.76 127.589 42.844 127.905 43.012C128.22 43.18 128.47 43.416 128.654 43.72C128.847 44.016 128.951 44.352 128.966 44.728V46.816C128.951 47.2 128.847 47.54 128.654 47.836C128.47 48.132 128.22 48.368 127.905 48.544C127.589 48.712 127.232 48.796 126.832 48.796ZM127.109 47.344C127.532 47.344 127.874 47.2 128.135 46.912C128.397 46.616 128.528 46.236 128.528 45.772C128.528 45.468 128.466 45.2 128.343 44.968C128.228 44.728 128.062 44.544 127.847 44.416C127.639 44.28 127.393 44.212 127.109 44.212C126.832 44.212 126.586 44.28 126.37 44.416C126.163 44.544 125.997 44.728 125.874 44.968C125.759 45.2 125.701 45.468 125.701 45.772C125.701 46.084 125.759 46.36 125.874 46.6C125.997 46.832 126.163 47.016 126.37 47.152C126.586 47.28 126.832 47.344 127.109 47.344ZM128.447 48.676V47.116L128.689 45.7L128.447 44.308V42.88H129.946V48.676H128.447ZM135.033 48.676V45.352C135.033 45.008 134.929 44.728 134.722 44.512C134.514 44.296 134.245 44.188 133.914 44.188C133.699 44.188 133.506 44.236 133.337 44.332C133.168 44.428 133.033 44.564 132.933 44.74C132.841 44.916 132.795 45.12 132.795 45.352L132.207 45.04C132.207 44.584 132.299 44.188 132.483 43.852C132.676 43.508 132.937 43.24 133.268 43.048C133.606 42.856 133.987 42.76 134.41 42.76C134.818 42.76 135.183 42.868 135.506 43.084C135.829 43.292 136.083 43.568 136.267 43.912C136.452 44.248 136.543 44.612 136.543 45.004V48.676H135.033ZM131.284 48.676V42.88H132.795V48.676H131.284ZM140.426 48.796C139.842 48.796 139.323 48.668 138.869 48.412C138.415 48.148 138.054 47.788 137.784 47.332C137.523 46.876 137.392 46.356 137.392 45.772C137.392 45.196 137.519 44.684 137.773 44.236C138.034 43.78 138.388 43.42 138.834 43.156C139.28 42.884 139.776 42.748 140.322 42.748C140.861 42.748 141.334 42.876 141.741 43.132C142.157 43.38 142.48 43.724 142.71 44.164C142.949 44.596 143.068 45.088 143.068 45.64C143.068 45.744 143.06 45.852 143.045 45.964C143.037 46.068 143.018 46.188 142.987 46.324L138.304 46.336V45.16L142.284 45.148L141.672 45.64C141.657 45.296 141.595 45.008 141.488 44.776C141.388 44.544 141.238 44.368 141.038 44.248C140.845 44.12 140.607 44.056 140.322 44.056C140.022 44.056 139.761 44.128 139.538 44.272C139.315 44.408 139.142 44.604 139.019 44.86C138.903 45.108 138.846 45.404 138.846 45.748C138.846 46.1 138.907 46.408 139.03 46.672C139.161 46.928 139.346 47.128 139.584 47.272C139.822 47.408 140.099 47.476 140.415 47.476C140.699 47.476 140.957 47.428 141.188 47.332C141.418 47.228 141.618 47.076 141.787 46.876L142.676 47.8C142.407 48.128 142.076 48.376 141.684 48.544C141.299 48.712 140.88 48.796 140.426 48.796ZM144.002 48.676V40H145.514V48.676H144.002Z" fill="#5F5F5F"/>
<path d="M57 12H59.2636L64.5862 28.1966H64.7697L70.0922 12H72.3558V31.5122H70.5817V16.6875H70.4287L65.5344 31.5122H63.8214L58.9271 16.6875H58.7742V31.5122H57V12Z" fill="#006666"/>
<path d="M77.0762 37C76.7703 37 76.4975 36.9682 76.2579 36.9047C76.0183 36.8476 75.8526 36.7904 75.7608 36.7332L76.2197 34.7515C76.6581 34.8913 77.0456 34.9421 77.382 34.904C77.7185 34.8659 78.0168 34.6785 78.2768 34.3418C78.5419 34.0116 78.7841 33.4748 79.0033 32.7317L79.3398 31.5884L74.9961 16.878H76.9538L80.1963 28.5396H80.3186L83.5611 16.878H85.5188L80.5327 33.6463C80.3084 34.4022 80.0306 35.0278 79.6992 35.5232C79.3678 36.025 78.9829 36.3966 78.5444 36.638C78.1111 36.8793 77.6217 37 77.0762 37Z" fill="#006666"/>
<path d="M92.9788 31.5122H88.1457V12H93.1929C94.7122 12 96.0122 12.3906 97.093 13.1719C98.1739 13.9468 99.0023 15.0615 99.5784 16.516C100.155 17.9642 100.443 19.6982 100.443 21.718C100.443 23.7505 100.152 25.5004 99.5708 26.9676C98.9896 28.4285 98.1433 29.5527 97.0319 30.3403C95.9205 31.1216 94.5694 31.5122 92.9788 31.5122ZM90.0422 29.4162H92.8564C94.1514 29.4162 95.2245 29.1049 96.0759 28.4825C96.9274 27.86 97.5621 26.974 97.9801 25.8243C98.3982 24.6747 98.6072 23.3059 98.6072 21.718C98.6072 20.1428 98.4007 18.7867 97.9878 17.6498C97.5748 16.5065 96.9579 15.63 96.1371 15.0202C95.3163 14.4041 94.2941 14.096 93.0705 14.096H90.0422V29.4162Z" fill="#006666"/>
<path d="M108.151 31.8171C107.091 31.8171 106.16 31.5027 105.36 30.8739C104.564 30.245 103.942 29.3653 103.494 28.2348C103.05 27.1042 102.829 25.783 102.829 24.2713C102.829 22.7469 103.05 21.4163 103.494 20.2793C103.942 19.1424 104.564 18.2595 105.36 17.6307C106.16 17.0019 107.091 16.6875 108.151 16.6875C109.212 16.6875 110.139 17.0019 110.935 17.6307C111.735 18.2595 112.357 19.1424 112.801 20.2793C113.249 21.4163 113.474 22.7469 113.474 24.2713C113.474 25.783 113.249 27.1042 112.801 28.2348C112.357 29.3653 111.735 30.245 110.935 30.8739C110.139 31.5027 109.212 31.8171 108.151 31.8171ZM108.151 29.7973C108.957 29.7973 109.619 29.54 110.139 29.0255C110.659 28.5111 111.044 27.8346 111.294 26.9962C111.544 26.1578 111.669 25.2495 111.669 24.2713C111.669 23.2932 111.544 22.3817 111.294 21.537C111.044 20.6922 110.659 20.0094 110.139 19.4886C109.619 18.9677 108.957 18.7073 108.151 18.7073C107.346 18.7073 106.683 18.9677 106.163 19.4886C105.643 20.0094 105.258 20.6922 105.008 21.537C104.758 22.3817 104.633 23.2932 104.633 24.2713C104.633 25.2495 104.758 26.1578 105.008 26.9962C105.258 27.8346 105.643 28.5111 106.163 29.0255C106.683 29.54 107.346 29.7973 108.151 29.7973Z" fill="#006666"/>
<path d="M121.001 31.8171C119.899 31.8171 118.951 31.4931 118.156 30.8453C117.36 30.1974 116.749 29.305 116.32 28.1681C115.892 27.0311 115.678 25.7322 115.678 24.2713C115.678 22.7851 115.897 21.4734 116.336 20.3365C116.779 19.1932 117.396 18.3008 118.186 17.6593C118.982 17.0114 119.909 16.6875 120.97 16.6875C121.796 16.6875 122.54 16.878 123.203 17.2591C123.866 17.6402 124.409 18.1738 124.832 18.8598C125.255 19.5457 125.518 20.346 125.619 21.2607H123.815C123.677 20.5937 123.371 20.003 122.897 19.4886C122.428 18.9677 121.796 18.7073 121.001 18.7073C120.297 18.7073 119.68 18.936 119.15 19.3933C118.625 19.8443 118.214 20.4826 117.919 21.3083C117.628 22.1277 117.483 23.0899 117.483 24.1951C117.483 25.3257 117.625 26.3102 117.911 27.1486C118.202 27.987 118.609 28.6381 119.135 29.1018C119.665 29.5654 120.287 29.7973 121.001 29.7973C121.47 29.7973 121.895 29.6956 122.278 29.4924C122.66 29.2891 122.984 28.9969 123.249 28.6159C123.514 28.2348 123.703 27.7774 123.815 27.2439H125.619C125.518 28.1077 125.265 28.8858 124.862 29.5781C124.465 30.2641 123.937 30.8103 123.279 31.2168C122.627 31.617 121.867 31.8171 121.001 31.8171Z" fill="#006666"/>
<path d="M133.366 16.878V18.7835H127.279V16.878H133.366ZM129.053 13.372H130.858V27.3201C130.858 27.9553 130.932 28.4317 131.08 28.7492C131.233 29.0605 131.426 29.2701 131.661 29.378C131.901 29.4797 132.153 29.5305 132.418 29.5305C132.617 29.5305 132.78 29.5178 132.907 29.4924C133.035 29.4606 133.137 29.4352 133.213 29.4162L133.58 31.436C133.458 31.4931 133.287 31.5503 133.068 31.6075C132.849 31.671 132.571 31.7027 132.234 31.7027C131.725 31.7027 131.225 31.5662 130.736 31.2931C130.251 31.0199 129.848 30.6039 129.527 30.045C129.211 29.486 129.053 28.781 129.053 27.9299V13.372Z" fill="#006666"/>
<path d="M140.727 31.8171C139.666 31.8171 138.736 31.5027 137.936 30.8739C137.14 30.245 136.518 29.3653 136.07 28.2348C135.626 27.1042 135.404 25.783 135.404 24.2713C135.404 22.7469 135.626 21.4163 136.07 20.2793C136.518 19.1424 137.14 18.2595 137.936 17.6307C138.736 17.0019 139.666 16.6875 140.727 16.6875C141.787 16.6875 142.715 17.0019 143.51 17.6307C144.311 18.2595 144.933 19.1424 145.376 20.2793C145.825 21.4163 146.049 22.7469 146.049 24.2713C146.049 25.783 145.825 27.1042 145.376 28.2348C144.933 29.3653 144.311 30.245 143.51 30.8739C142.715 31.5027 141.787 31.8171 140.727 31.8171ZM140.727 29.7973C141.532 29.7973 142.195 29.54 142.715 29.0255C143.235 28.5111 143.62 27.8346 143.87 26.9962C144.12 26.1578 144.245 25.2495 144.245 24.2713C144.245 23.2932 144.12 22.3817 143.87 21.537C143.62 20.6922 143.235 20.0094 142.715 19.4886C142.195 18.9677 141.532 18.7073 140.727 18.7073C139.921 18.7073 139.259 18.9677 138.738 19.4886C138.218 20.0094 137.834 20.6922 137.584 21.537C137.334 22.3817 137.209 23.2932 137.209 24.2713C137.209 25.2495 137.334 26.1578 137.584 26.9962C137.834 27.8346 138.218 28.5111 138.738 29.0255C139.259 29.54 139.921 29.7973 140.727 29.7973Z" fill="#006666"/>
<path d="M148.804 31.5122V16.878H150.548V19.0884H150.67C150.884 18.3643 151.272 17.7768 151.833 17.3258C152.393 16.8749 153.026 16.6494 153.729 16.6494C153.862 16.6494 154.027 16.6526 154.226 16.6589C154.425 16.6653 154.575 16.6748 154.677 16.6875V18.9741C154.616 18.955 154.476 18.9264 154.257 18.8883C154.043 18.8439 153.816 18.8216 153.576 18.8216C153.005 18.8216 152.495 18.9709 152.047 19.2694C151.603 19.5616 151.251 19.9681 150.991 20.4889C150.737 21.0034 150.609 21.591 150.609 22.2515V31.5122H148.804Z" fill="#006666"/>
<path d="M156.842 31.5122H154.853L160.604 12H162.562L168.313 31.5122H166.324L161.644 15.0869H161.522L156.842 31.5122ZM157.576 23.8902H165.59V25.9863H157.576V23.8902Z" fill="#006666"/>
<path d="M170.507 37V16.878H172.251V19.2027H172.465C172.598 18.9487 172.781 18.6247 173.016 18.2309C173.255 17.8308 173.597 17.4751 174.04 17.1639C174.489 16.8463 175.096 16.6875 175.861 16.6875C176.85 16.6875 177.721 16.9956 178.476 17.6117C179.23 18.2278 179.819 19.1011 180.242 20.2317C180.666 21.3623 180.877 22.6961 180.877 24.2332C180.877 25.783 180.666 27.1264 180.242 28.2633C179.819 29.3939 179.233 30.2704 178.484 30.8929C177.734 31.509 176.87 31.8171 175.891 31.8171C175.137 31.8171 174.532 31.6615 174.079 31.3502C173.625 31.0326 173.276 30.6738 173.031 30.2736C172.786 29.8671 172.598 29.5305 172.465 29.2637H172.312V37H170.507ZM172.282 24.1951C172.282 25.3003 172.412 26.2753 172.672 27.12C172.932 27.9585 173.311 28.6159 173.811 29.0922C174.311 29.5622 174.922 29.7973 175.646 29.7973C176.401 29.7973 177.031 29.5495 177.535 29.0541C178.045 28.5523 178.427 27.8791 178.682 27.0343C178.942 26.1832 179.072 25.2368 179.072 24.1951C179.072 23.1662 178.945 22.2388 178.69 21.4131C178.44 20.581 178.06 19.9237 177.551 19.4409C177.046 18.9519 176.411 18.7073 175.646 18.7073C174.912 18.7073 174.295 18.9392 173.796 19.4028C173.296 19.8601 172.919 20.5017 172.664 21.3274C172.409 22.1467 172.282 23.1026 172.282 24.1951Z" fill="#006666"/>
<path d="M183.63 37V16.878H185.374V19.2027H185.588C185.721 18.9487 185.904 18.6247 186.139 18.2309C186.378 17.8308 186.72 17.4751 187.163 17.1639C187.612 16.8463 188.219 16.6875 188.983 16.6875C189.972 16.6875 190.844 16.9956 191.599 17.6117C192.353 18.2278 192.942 19.1011 193.365 20.2317C193.788 21.3623 194 22.6961 194 24.2332C194 25.783 193.788 27.1264 193.365 28.2633C192.942 29.3939 192.356 30.2704 191.606 30.8929C190.857 31.509 189.993 31.8171 189.014 31.8171C188.259 31.8171 187.655 31.6615 187.202 31.3502C186.748 31.0326 186.399 30.6738 186.154 30.2736C185.909 29.8671 185.721 29.5305 185.588 29.2637H185.435V37H183.63ZM185.404 24.1951C185.404 25.3003 185.534 26.2753 185.794 27.12C186.054 27.9585 186.434 28.6159 186.934 29.0922C187.434 29.5622 188.045 29.7973 188.769 29.7973C189.524 29.7973 190.153 29.5495 190.658 29.0541C191.168 28.5523 191.55 27.8791 191.805 27.0343C192.065 26.1832 192.195 25.2368 192.195 24.1951C192.195 23.1662 192.068 22.2388 191.813 21.4131C191.563 20.581 191.183 19.9237 190.673 19.4409C190.169 18.9519 189.534 18.7073 188.769 18.7073C188.035 18.7073 187.418 18.9392 186.919 19.4028C186.419 19.8601 186.042 20.5017 185.787 21.3274C185.532 22.1467 185.404 23.1026 185.404 24.1951Z" fill="#006666"/>
<path d="M57 12H59.2636L64.5862 28.1966H64.7697L70.0922 12H72.3558V31.5122H70.5817V16.6875H70.4287L65.5344 31.5122H63.8214L58.9271 16.6875H58.7742V31.5122H57V12Z" stroke="#006666"/>
<path d="M77.0762 37C76.7703 37 76.4975 36.9682 76.2579 36.9047C76.0183 36.8476 75.8526 36.7904 75.7608 36.7332L76.2197 34.7515C76.6581 34.8913 77.0456 34.9421 77.382 34.904C77.7185 34.8659 78.0168 34.6785 78.2768 34.3418C78.5419 34.0116 78.7841 33.4748 79.0033 32.7317L79.3398 31.5884L74.9961 16.878H76.9538L80.1963 28.5396H80.3186L83.5611 16.878H85.5188L80.5327 33.6463C80.3084 34.4022 80.0306 35.0278 79.6992 35.5232C79.3678 36.025 78.9829 36.3966 78.5444 36.638C78.1111 36.8793 77.6217 37 77.0762 37Z" stroke="#006666"/>
<path d="M92.9788 31.5122H88.1457V12H93.1929C94.7122 12 96.0122 12.3906 97.093 13.1719C98.1739 13.9468 99.0023 15.0615 99.5784 16.516C100.155 17.9642 100.443 19.6982 100.443 21.718C100.443 23.7505 100.152 25.5004 99.5708 26.9676C98.9896 28.4285 98.1433 29.5527 97.0319 30.3403C95.9205 31.1216 94.5694 31.5122 92.9788 31.5122ZM90.0422 29.4162H92.8564C94.1514 29.4162 95.2245 29.1049 96.0759 28.4825C96.9274 27.86 97.5621 26.974 97.9801 25.8243C98.3982 24.6747 98.6072 23.3059 98.6072 21.718C98.6072 20.1428 98.4007 18.7867 97.9878 17.6498C97.5748 16.5065 96.9579 15.63 96.1371 15.0202C95.3163 14.4041 94.2941 14.096 93.0705 14.096H90.0422V29.4162Z" stroke="#006666"/>
<path d="M108.151 31.8171C107.091 31.8171 106.16 31.5027 105.36 30.8739C104.564 30.245 103.942 29.3653 103.494 28.2348C103.05 27.1042 102.829 25.783 102.829 24.2713C102.829 22.7469 103.05 21.4163 103.494 20.2793C103.942 19.1424 104.564 18.2595 105.36 17.6307C106.16 17.0019 107.091 16.6875 108.151 16.6875C109.212 16.6875 110.139 17.0019 110.935 17.6307C111.735 18.2595 112.357 19.1424 112.801 20.2793C113.249 21.4163 113.474 22.7469 113.474 24.2713C113.474 25.783 113.249 27.1042 112.801 28.2348C112.357 29.3653 111.735 30.245 110.935 30.8739C110.139 31.5027 109.212 31.8171 108.151 31.8171ZM108.151 29.7973C108.957 29.7973 109.619 29.54 110.139 29.0255C110.659 28.5111 111.044 27.8346 111.294 26.9962C111.544 26.1578 111.669 25.2495 111.669 24.2713C111.669 23.2932 111.544 22.3817 111.294 21.537C111.044 20.6922 110.659 20.0094 110.139 19.4886C109.619 18.9677 108.957 18.7073 108.151 18.7073C107.346 18.7073 106.683 18.9677 106.163 19.4886C105.643 20.0094 105.258 20.6922 105.008 21.537C104.758 22.3817 104.633 23.2932 104.633 24.2713C104.633 25.2495 104.758 26.1578 105.008 26.9962C105.258 27.8346 105.643 28.5111 106.163 29.0255C106.683 29.54 107.346 29.7973 108.151 29.7973Z" stroke="#006666"/>
<path d="M121.001 31.8171C119.899 31.8171 118.951 31.4931 118.156 30.8453C117.36 30.1974 116.749 29.305 116.32 28.1681C115.892 27.0311 115.678 25.7322 115.678 24.2713C115.678 22.7851 115.897 21.4734 116.336 20.3365C116.779 19.1932 117.396 18.3008 118.186 17.6593C118.982 17.0114 119.909 16.6875 120.97 16.6875C121.796 16.6875 122.54 16.878 123.203 17.2591C123.866 17.6402 124.409 18.1738 124.832 18.8598C125.255 19.5457 125.518 20.346 125.619 21.2607H123.815C123.677 20.5937 123.371 20.003 122.897 19.4886C122.428 18.9677 121.796 18.7073 121.001 18.7073C120.297 18.7073 119.68 18.936 119.15 19.3933C118.625 19.8443 118.214 20.4826 117.919 21.3083C117.628 22.1277 117.483 23.0899 117.483 24.1951C117.483 25.3257 117.625 26.3102 117.911 27.1486C118.202 27.987 118.609 28.6381 119.135 29.1018C119.665 29.5654 120.287 29.7973 121.001 29.7973C121.47 29.7973 121.895 29.6956 122.278 29.4924C122.66 29.2891 122.984 28.9969 123.249 28.6159C123.514 28.2348 123.703 27.7774 123.815 27.2439H125.619C125.518 28.1077 125.265 28.8858 124.862 29.5781C124.465 30.2641 123.937 30.8103 123.279 31.2168C122.627 31.617 121.867 31.8171 121.001 31.8171Z" stroke="#006666"/>
<path d="M133.366 16.878V18.7835H127.279V16.878H133.366ZM129.053 13.372H130.858V27.3201C130.858 27.9553 130.932 28.4317 131.08 28.7492C131.233 29.0605 131.426 29.2701 131.661 29.378C131.901 29.4797 132.153 29.5305 132.418 29.5305C132.617 29.5305 132.78 29.5178 132.907 29.4924C133.035 29.4606 133.137 29.4352 133.213 29.4162L133.58 31.436C133.458 31.4931 133.287 31.5503 133.068 31.6075C132.849 31.671 132.571 31.7027 132.234 31.7027C131.725 31.7027 131.225 31.5662 130.736 31.2931C130.251 31.0199 129.848 30.6039 129.527 30.045C129.211 29.486 129.053 28.781 129.053 27.9299V13.372Z" stroke="#006666"/>
<path d="M140.727 31.8171C139.666 31.8171 138.736 31.5027 137.936 30.8739C137.14 30.245 136.518 29.3653 136.07 28.2348C135.626 27.1042 135.404 25.783 135.404 24.2713C135.404 22.7469 135.626 21.4163 136.07 20.2793C136.518 19.1424 137.14 18.2595 137.936 17.6307C138.736 17.0019 139.666 16.6875 140.727 16.6875C141.787 16.6875 142.715 17.0019 143.51 17.6307C144.311 18.2595 144.933 19.1424 145.376 20.2793C145.825 21.4163 146.049 22.7469 146.049 24.2713C146.049 25.783 145.825 27.1042 145.376 28.2348C144.933 29.3653 144.311 30.245 143.51 30.8739C142.715 31.5027 141.787 31.8171 140.727 31.8171ZM140.727 29.7973C141.532 29.7973 142.195 29.54 142.715 29.0255C143.235 28.5111 143.62 27.8346 143.87 26.9962C144.12 26.1578 144.245 25.2495 144.245 24.2713C144.245 23.2932 144.12 22.3817 143.87 21.537C143.62 20.6922 143.235 20.0094 142.715 19.4886C142.195 18.9677 141.532 18.7073 140.727 18.7073C139.921 18.7073 139.259 18.9677 138.738 19.4886C138.218 20.0094 137.834 20.6922 137.584 21.537C137.334 22.3817 137.209 23.2932 137.209 24.2713C137.209 25.2495 137.334 26.1578 137.584 26.9962C137.834 27.8346 138.218 28.5111 138.738 29.0255C139.259 29.54 139.921 29.7973 140.727 29.7973Z" stroke="#006666"/>
<path d="M148.804 31.5122V16.878H150.548V19.0884H150.67C150.884 18.3643 151.272 17.7768 151.833 17.3258C152.393 16.8749 153.026 16.6494 153.729 16.6494C153.862 16.6494 154.027 16.6526 154.226 16.6589C154.425 16.6653 154.575 16.6748 154.677 16.6875V18.9741C154.616 18.955 154.476 18.9264 154.257 18.8883C154.043 18.8439 153.816 18.8216 153.576 18.8216C153.005 18.8216 152.495 18.9709 152.047 19.2694C151.603 19.5616 151.251 19.9681 150.991 20.4889C150.737 21.0034 150.609 21.591 150.609 22.2515V31.5122H148.804Z" stroke="#006666"/>
<path d="M156.842 31.5122H154.853L160.604 12H162.562L168.313 31.5122H166.324L161.644 15.0869H161.522L156.842 31.5122ZM157.576 23.8902H165.59V25.9863H157.576V23.8902Z" stroke="#006666"/>
<path d="M170.507 37V16.878H172.251V19.2027H172.465C172.598 18.9487 172.781 18.6247 173.016 18.2309C173.255 17.8308 173.597 17.4751 174.04 17.1639C174.489 16.8463 175.096 16.6875 175.861 16.6875C176.85 16.6875 177.721 16.9956 178.476 17.6117C179.23 18.2278 179.819 19.1011 180.242 20.2317C180.666 21.3623 180.877 22.6961 180.877 24.2332C180.877 25.783 180.666 27.1264 180.242 28.2633C179.819 29.3939 179.233 30.2704 178.484 30.8929C177.734 31.509 176.87 31.8171 175.891 31.8171C175.137 31.8171 174.532 31.6615 174.079 31.3502C173.625 31.0326 173.276 30.6738 173.031 30.2736C172.786 29.8671 172.598 29.5305 172.465 29.2637H172.312V37H170.507ZM172.282 24.1951C172.282 25.3003 172.412 26.2753 172.672 27.12C172.932 27.9585 173.311 28.6159 173.811 29.0922C174.311 29.5622 174.922 29.7973 175.646 29.7973C176.401 29.7973 177.031 29.5495 177.535 29.0541C178.045 28.5523 178.427 27.8791 178.682 27.0343C178.942 26.1832 179.072 25.2368 179.072 24.1951C179.072 23.1662 178.945 22.2388 178.69 21.4131C178.44 20.581 178.06 19.9237 177.551 19.4409C177.046 18.9519 176.411 18.7073 175.646 18.7073C174.912 18.7073 174.295 18.9392 173.796 19.4028C173.296 19.8601 172.919 20.5017 172.664 21.3274C172.409 22.1467 172.282 23.1026 172.282 24.1951Z" stroke="#006666"/>
<path d="M183.63 37V16.878H185.374V19.2027H185.588C185.721 18.9487 185.904 18.6247 186.139 18.2309C186.378 17.8308 186.72 17.4751 187.163 17.1639C187.612 16.8463 188.219 16.6875 188.983 16.6875C189.972 16.6875 190.844 16.9956 191.599 17.6117C192.353 18.2278 192.942 19.1011 193.365 20.2317C193.788 21.3623 194 22.6961 194 24.2332C194 25.783 193.788 27.1264 193.365 28.2633C192.942 29.3939 192.356 30.2704 191.606 30.8929C190.857 31.509 189.993 31.8171 189.014 31.8171C188.259 31.8171 187.655 31.6615 187.202 31.3502C186.748 31.0326 186.399 30.6738 186.154 30.2736C185.909 29.8671 185.721 29.5305 185.588 29.2637H185.435V37H183.63ZM185.404 24.1951C185.404 25.3003 185.534 26.2753 185.794 27.12C186.054 27.9585 186.434 28.6159 186.934 29.0922C187.434 29.5622 188.045 29.7973 188.769 29.7973C189.524 29.7973 190.153 29.5495 190.658 29.0541C191.168 28.5523 191.55 27.8791 191.805 27.0343C192.065 26.1832 192.195 25.2368 192.195 24.1951C192.195 23.1662 192.068 22.2388 191.813 21.4131C191.563 20.581 191.183 19.9237 190.673 19.4409C190.169 18.9519 189.534 18.7073 188.769 18.7073C188.035 18.7073 187.418 18.9392 186.919 19.4028C186.419 19.8601 186.042 20.5017 185.787 21.3274C185.532 22.1467 185.404 23.1026 185.404 24.1951Z" stroke="#006666"/>
</svg>
