<svg width="199" height="49" viewBox="0 0 199 49" fill="none" xmlns="http://www.w3.org/2000/svg">
<path d="M22.1107 3C34.3226 3 44.2218 13.2971 44.2218 26V42.1C44.2218 43.93 43.523 45.685 42.279 46.979C41.035 48.273 39.3477 49 37.5884 49H23.2162V38.9099C23.2162 36.6076 23.3511 34.2225 24.5119 32.2629C25.343 30.8586 26.4548 29.6566 27.7718 28.7385C29.0887 27.8204 30.5801 27.2077 32.1447 26.9418L32.5682 26.8705C32.7427 26.8085 32.8942 26.6912 33.0015 26.5351C33.1088 26.379 33.1665 26.1919 33.1665 26C33.1665 25.8081 33.1088 25.621 33.0015 25.4649C32.8942 25.3088 32.7427 25.1915 32.5682 25.1294L32.1447 25.0581C29.8586 24.6697 27.7476 23.5441 26.1096 21.8403C24.4716 20.1365 23.3896 17.9406 23.0162 15.5626L22.9476 15.1222C22.8879 14.9406 22.7751 14.7829 22.6251 14.6713C22.475 14.5597 22.2951 14.4997 22.1107 14.4997C21.9262 14.4997 21.7464 14.5597 21.5963 14.6713C21.4463 14.7829 21.3335 14.9406 21.2738 15.1222L21.2053 15.5626C20.9498 17.1902 20.3608 18.7415 19.4782 20.1114C18.5956 21.4814 17.4399 22.6378 16.0898 23.5022C14.2059 24.7097 11.913 24.85 9.69969 24.85H0.026123C0.604329 12.6818 10.2702 3 22.1107 3Z" fill="#20B2AA"/>
<path d="M0 27.15H9.70014C11.9135 27.15 14.2064 27.2903 16.0903 28.4978C17.5629 29.4417 18.8024 30.7311 19.7098 32.2629C20.8707 34.2225 21.0056 36.6076 21.0056 38.9099V49H6.63333C4.87407 49 3.18685 48.273 1.94286 46.979C0.698867 45.685 0 43.93 0 42.1V27.15ZM44.2222 5.3C44.2222 5.91 43.9893 6.49501 43.5746 6.92635C43.1599 7.35768 42.5975 7.6 42.0111 7.6C41.4247 7.6 40.8623 7.35768 40.4477 6.92635C40.0329 6.49501 39.8 5.91 39.8 5.3C39.8 4.69 40.0329 4.10499 40.4477 3.67365C40.8623 3.24232 41.4247 3 42.0111 3C42.5975 3 43.1599 3.24232 43.5746 3.67365C43.9893 4.10499 44.2222 4.69 44.2222 5.3Z" fill="#20B2AA"/>
<path d="M52 21H54.3462L59.863 37.1966H60.0533L65.57 21H67.9163V40.5122H66.0773V25.6875H65.9188L60.8459 40.5122H59.0704L53.9975 25.6875H53.8389V40.5122H52V21Z" fill="#006666"/>
<path d="M72.8089 46C72.4918 46 72.2091 45.9682 71.9607 45.9047C71.7124 45.8476 71.5406 45.7904 71.4455 45.7332L71.9211 43.7515C72.3755 43.8913 72.7772 43.9421 73.1259 43.904C73.4747 43.8659 73.7838 43.6785 74.0533 43.3418C74.3281 43.0116 74.5791 42.4748 74.8063 41.7317L75.1551 40.5884L70.6529 25.878H72.682L76.0428 37.5396H76.1697L79.5305 25.878H81.5596L76.3916 42.6463C76.1591 43.4022 75.8711 44.0278 75.5276 44.5232C75.1841 45.025 74.7852 45.3966 74.3307 45.638C73.8816 45.8793 73.3743 46 72.8089 46Z" fill="#006666"/>
<path d="M89.2919 40.5122H84.2824V21H89.5138C91.0885 21 92.436 21.3906 93.5563 22.1719C94.6766 22.9468 95.5353 24.0615 96.1324 25.516C96.7295 26.9642 97.0281 28.6982 97.0281 30.718C97.0281 32.7505 96.7269 34.5004 96.1245 35.9676C95.522 37.4285 94.6449 38.5527 93.4929 39.3403C92.3409 40.1216 90.9406 40.5122 89.2919 40.5122ZM86.2481 38.4162H89.165C90.5073 38.4162 91.6196 38.1049 92.5021 37.4825C93.3846 36.86 94.0424 35.974 94.4758 34.8243C94.9091 33.6747 95.1257 32.3059 95.1257 30.718C95.1257 29.1428 94.9117 27.7867 94.4837 26.6498C94.0557 25.5065 93.4163 24.63 92.5655 24.0202C91.7147 23.4041 90.6552 23.096 89.387 23.096H86.2481V38.4162Z" fill="#006666"/>
<path d="M105.018 40.8171C103.919 40.8171 102.954 40.5027 102.125 39.8739C101.3 39.245 100.656 38.3653 100.191 37.2348C99.731 36.1042 99.5011 34.783 99.5011 33.2713C99.5011 31.7469 99.731 30.4163 100.191 29.2793C100.656 28.1424 101.3 27.2595 102.125 26.6307C102.954 26.0019 103.919 25.6875 105.018 25.6875C106.117 25.6875 107.079 26.0019 107.903 26.6307C108.733 27.2595 109.377 28.1424 109.837 29.2793C110.302 30.4163 110.535 31.7469 110.535 33.2713C110.535 34.783 110.302 36.1042 109.837 37.2348C109.377 38.3653 108.733 39.245 107.903 39.8739C107.079 40.5027 106.117 40.8171 105.018 40.8171ZM105.018 38.7973C105.853 38.7973 106.54 38.54 107.079 38.0255C107.618 37.5111 108.017 36.8346 108.276 35.9962C108.535 35.1578 108.664 34.2495 108.664 33.2713C108.664 32.2932 108.535 31.3817 108.276 30.537C108.017 29.6922 107.618 29.0094 107.079 28.4886C106.54 27.9677 105.853 27.7073 105.018 27.7073C104.183 27.7073 103.496 27.9677 102.957 28.4886C102.418 29.0094 102.019 29.6922 101.76 30.537C101.501 31.3817 101.372 32.2932 101.372 33.2713C101.372 34.2495 101.501 35.1578 101.76 35.9962C102.019 36.8346 102.418 37.5111 102.957 38.0255C103.496 38.54 104.183 38.7973 105.018 38.7973Z" fill="#006666"/>
<path d="M118.336 40.8171C117.195 40.8171 116.212 40.4931 115.388 39.8453C114.563 39.1974 113.929 38.305 113.485 37.1681C113.041 36.0311 112.819 34.7322 112.819 33.2713C112.819 31.7851 113.047 30.4734 113.501 29.3365C113.961 28.1932 114.6 27.3008 115.419 26.6593C116.244 26.0114 117.205 25.6875 118.305 25.6875C119.161 25.6875 119.932 25.878 120.619 26.2591C121.306 26.6402 121.869 27.1738 122.307 27.8598C122.746 28.5457 123.018 29.346 123.124 30.2607H121.253C121.111 29.5937 120.793 29.003 120.302 28.4886C119.816 27.9677 119.161 27.7073 118.336 27.7073C117.607 27.7073 116.968 27.936 116.418 28.3933C115.874 28.8443 115.448 29.4826 115.142 30.3083C114.841 31.1277 114.69 32.0899 114.69 33.1951C114.69 34.3257 114.838 35.3102 115.134 36.1486C115.435 36.987 115.858 37.6381 116.402 38.1018C116.952 38.5654 117.596 38.7973 118.336 38.7973C118.822 38.7973 119.264 38.6956 119.66 38.4924C120.056 38.2891 120.392 37.9969 120.667 37.6159C120.941 37.2348 121.137 36.7774 121.253 36.2439H123.124C123.018 37.1077 122.757 37.8858 122.339 38.5781C121.927 39.2641 121.38 39.8103 120.698 40.2168C120.022 40.617 119.235 40.8171 118.336 40.8171Z" fill="#006666"/>
<path d="M131.153 25.878V27.7835H124.844V25.878H131.153ZM126.683 22.372H128.553V36.3201C128.553 36.9553 128.63 37.4317 128.783 37.7492C128.942 38.0605 129.143 38.2701 129.386 38.378C129.634 38.4797 129.896 38.5305 130.17 38.5305C130.377 38.5305 130.546 38.5178 130.678 38.4924C130.81 38.4606 130.916 38.4352 130.995 38.4162L131.375 40.436C131.248 40.4931 131.071 40.5503 130.844 40.6075C130.617 40.671 130.329 40.7027 129.98 40.7027C129.452 40.7027 128.934 40.5662 128.427 40.2931C127.925 40.0199 127.507 39.6039 127.174 39.045C126.847 38.486 126.683 37.781 126.683 36.9299V22.372Z" fill="#006666"/>
<path d="M138.783 40.8171C137.683 40.8171 136.719 40.5027 135.889 39.8739C135.065 39.245 134.42 38.3653 133.955 37.2348C133.496 36.1042 133.266 34.783 133.266 33.2713C133.266 31.7469 133.496 30.4163 133.955 29.2793C134.42 28.1424 135.065 27.2595 135.889 26.6307C136.719 26.0019 137.683 25.6875 138.783 25.6875C139.882 25.6875 140.843 26.0019 141.668 26.6307C142.497 27.2595 143.142 28.1424 143.602 29.2793C144.067 30.4163 144.299 31.7469 144.299 33.2713C144.299 34.783 144.067 36.1042 143.602 37.2348C143.142 38.3653 142.497 39.245 141.668 39.8739C140.843 40.5027 139.882 40.8171 138.783 40.8171ZM138.783 38.7973C139.617 38.7973 140.304 38.54 140.843 38.0255C141.382 37.5111 141.781 36.8346 142.04 35.9962C142.299 35.1578 142.429 34.2495 142.429 33.2713C142.429 32.2932 142.299 31.3817 142.04 30.537C141.781 29.6922 141.382 29.0094 140.843 28.4886C140.304 27.9677 139.617 27.7073 138.783 27.7073C137.948 27.7073 137.261 27.9677 136.722 28.4886C136.183 29.0094 135.784 29.6922 135.525 30.537C135.266 31.3817 135.136 32.2932 135.136 33.2713C135.136 34.2495 135.266 35.1578 135.525 35.9962C135.784 36.8346 136.183 37.5111 136.722 38.0255C137.261 38.54 137.948 38.7973 138.783 38.7973Z" fill="#006666"/>
<path d="M147.155 40.5122V25.878H148.962V28.0884H149.089C149.311 27.3643 149.712 26.7768 150.294 26.3258C150.875 25.8749 151.53 25.6494 152.259 25.6494C152.397 25.6494 152.569 25.6526 152.775 25.6589C152.981 25.6653 153.137 25.6748 153.242 25.6875V27.9741C153.179 27.955 153.034 27.9264 152.806 27.8883C152.584 27.8439 152.349 27.8216 152.101 27.8216C151.509 27.8216 150.981 27.9709 150.516 28.2694C150.056 28.5616 149.691 28.9681 149.422 29.4889C149.158 30.0034 149.025 30.591 149.025 31.2515V40.5122H147.155Z" fill="#006666"/>
<path d="M155.485 40.5122H153.425L159.385 21H161.414L167.375 40.5122H165.314L160.463 24.0869H160.336L155.485 40.5122ZM156.246 32.8902H164.553V34.9863H156.246V32.8902Z" fill="#006666"/>
<path d="M169.65 46V25.878H171.457V28.2027H171.679C171.817 27.9487 172.007 27.6247 172.25 27.2309C172.498 26.8308 172.852 26.4751 173.312 26.1639C173.777 25.8463 174.406 25.6875 175.199 25.6875C176.224 25.6875 177.127 25.9956 177.909 26.6117C178.691 27.2278 179.302 28.1011 179.74 29.2317C180.179 30.3623 180.398 31.6961 180.398 33.2332C180.398 34.783 180.179 36.1264 179.74 37.2633C179.302 38.3939 178.694 39.2704 177.917 39.8929C177.14 40.509 176.245 40.8171 175.23 40.8171C174.448 40.8171 173.822 40.6615 173.352 40.3502C172.881 40.0326 172.519 39.6738 172.266 39.2736C172.012 38.8671 171.817 38.5305 171.679 38.2637H171.521V46H169.65ZM171.489 33.1951C171.489 34.3003 171.624 35.2753 171.893 36.12C172.163 36.9585 172.556 37.6159 173.074 38.0922C173.592 38.5622 174.226 38.7973 174.977 38.7973C175.759 38.7973 176.411 38.5495 176.934 38.0541C177.463 37.5523 177.859 36.8791 178.123 36.0343C178.393 35.1832 178.528 34.2368 178.528 33.1951C178.528 32.1662 178.396 31.2388 178.131 30.4131C177.872 29.581 177.479 28.9237 176.95 28.4409C176.427 27.9519 175.769 27.7073 174.977 27.7073C174.216 27.7073 173.576 27.9392 173.058 28.4028C172.541 28.8601 172.149 29.5017 171.885 30.3274C171.621 31.1467 171.489 32.1026 171.489 33.1951Z" fill="#006666"/>
<path d="M183.252 46V25.878H185.059V28.2027H185.281C185.418 27.9487 185.609 27.6247 185.852 27.2309C186.1 26.8308 186.454 26.4751 186.914 26.1639C187.379 25.8463 188.008 25.6875 188.8 25.6875C189.825 25.6875 190.729 25.9956 191.511 26.6117C192.293 27.2278 192.904 28.1011 193.342 29.2317C193.781 30.3623 194 31.6961 194 33.2332C194 34.783 193.781 36.1264 193.342 37.2633C192.904 38.3939 192.296 39.2704 191.519 39.8929C190.742 40.509 189.847 40.8171 188.832 40.8171C188.05 40.8171 187.424 40.6615 186.953 40.3502C186.483 40.0326 186.121 39.6738 185.867 39.2736C185.614 38.8671 185.418 38.5305 185.281 38.2637H185.122V46H183.252ZM185.091 33.1951C185.091 34.3003 185.225 35.2753 185.495 36.12C185.764 36.9585 186.158 37.6159 186.676 38.0922C187.194 38.5622 187.828 38.7973 188.578 38.7973C189.36 38.7973 190.013 38.5495 190.536 38.0541C191.065 37.5523 191.461 36.8791 191.725 36.0343C191.995 35.1832 192.129 34.2368 192.129 33.1951C192.129 32.1662 191.997 31.2388 191.733 30.4131C191.474 29.581 191.08 28.9237 190.552 28.4409C190.029 27.9519 189.371 27.7073 188.578 27.7073C187.817 27.7073 187.178 27.9392 186.66 28.4028C186.142 28.8601 185.751 29.5017 185.487 30.3274C185.223 31.1467 185.091 32.1026 185.091 33.1951Z" fill="#006666"/>
<path d="M52 21H54.3462L59.863 37.1966H60.0533L65.57 21H67.9163V40.5122H66.0773V25.6875H65.9188L60.8459 40.5122H59.0704L53.9975 25.6875H53.8389V40.5122H52V21Z" stroke="#006666"/>
<path d="M72.8089 46C72.4918 46 72.2091 45.9682 71.9607 45.9047C71.7124 45.8476 71.5406 45.7904 71.4455 45.7332L71.9211 43.7515C72.3755 43.8913 72.7772 43.9421 73.1259 43.904C73.4747 43.8659 73.7838 43.6785 74.0533 43.3418C74.3281 43.0116 74.5791 42.4748 74.8063 41.7317L75.1551 40.5884L70.6529 25.878H72.682L76.0428 37.5396H76.1697L79.5305 25.878H81.5596L76.3916 42.6463C76.1591 43.4022 75.8711 44.0278 75.5276 44.5232C75.1841 45.025 74.7852 45.3966 74.3307 45.638C73.8816 45.8793 73.3743 46 72.8089 46Z" stroke="#006666"/>
<path d="M89.2919 40.5122H84.2824V21H89.5138C91.0885 21 92.436 21.3906 93.5563 22.1719C94.6766 22.9468 95.5353 24.0615 96.1324 25.516C96.7295 26.9642 97.0281 28.6982 97.0281 30.718C97.0281 32.7505 96.7269 34.5004 96.1245 35.9676C95.522 37.4285 94.6449 38.5527 93.4929 39.3403C92.3409 40.1216 90.9406 40.5122 89.2919 40.5122ZM86.2481 38.4162H89.165C90.5073 38.4162 91.6196 38.1049 92.5021 37.4825C93.3846 36.86 94.0424 35.974 94.4758 34.8243C94.9091 33.6747 95.1257 32.3059 95.1257 30.718C95.1257 29.1428 94.9117 27.7867 94.4837 26.6498C94.0557 25.5065 93.4163 24.63 92.5655 24.0202C91.7147 23.4041 90.6552 23.096 89.387 23.096H86.2481V38.4162Z" stroke="#006666"/>
<path d="M105.018 40.8171C103.919 40.8171 102.954 40.5027 102.125 39.8739C101.3 39.245 100.656 38.3653 100.191 37.2348C99.731 36.1042 99.5011 34.783 99.5011 33.2713C99.5011 31.7469 99.731 30.4163 100.191 29.2793C100.656 28.1424 101.3 27.2595 102.125 26.6307C102.954 26.0019 103.919 25.6875 105.018 25.6875C106.117 25.6875 107.079 26.0019 107.903 26.6307C108.733 27.2595 109.377 28.1424 109.837 29.2793C110.302 30.4163 110.535 31.7469 110.535 33.2713C110.535 34.783 110.302 36.1042 109.837 37.2348C109.377 38.3653 108.733 39.245 107.903 39.8739C107.079 40.5027 106.117 40.8171 105.018 40.8171ZM105.018 38.7973C105.853 38.7973 106.54 38.54 107.079 38.0255C107.618 37.5111 108.017 36.8346 108.276 35.9962C108.535 35.1578 108.664 34.2495 108.664 33.2713C108.664 32.2932 108.535 31.3817 108.276 30.537C108.017 29.6922 107.618 29.0094 107.079 28.4886C106.54 27.9677 105.853 27.7073 105.018 27.7073C104.183 27.7073 103.496 27.9677 102.957 28.4886C102.418 29.0094 102.019 29.6922 101.76 30.537C101.501 31.3817 101.372 32.2932 101.372 33.2713C101.372 34.2495 101.501 35.1578 101.76 35.9962C102.019 36.8346 102.418 37.5111 102.957 38.0255C103.496 38.54 104.183 38.7973 105.018 38.7973Z" stroke="#006666"/>
<path d="M118.336 40.8171C117.195 40.8171 116.212 40.4931 115.388 39.8453C114.563 39.1974 113.929 38.305 113.485 37.1681C113.041 36.0311 112.819 34.7322 112.819 33.2713C112.819 31.7851 113.047 30.4734 113.501 29.3365C113.961 28.1932 114.6 27.3008 115.419 26.6593C116.244 26.0114 117.205 25.6875 118.305 25.6875C119.161 25.6875 119.932 25.878 120.619 26.2591C121.306 26.6402 121.869 27.1738 122.307 27.8598C122.746 28.5457 123.018 29.346 123.124 30.2607H121.253C121.111 29.5937 120.793 29.003 120.302 28.4886C119.816 27.9677 119.161 27.7073 118.336 27.7073C117.607 27.7073 116.968 27.936 116.418 28.3933C115.874 28.8443 115.448 29.4826 115.142 30.3083C114.841 31.1277 114.69 32.0899 114.69 33.1951C114.69 34.3257 114.838 35.3102 115.134 36.1486C115.435 36.987 115.858 37.6381 116.402 38.1018C116.952 38.5654 117.596 38.7973 118.336 38.7973C118.822 38.7973 119.264 38.6956 119.66 38.4924C120.056 38.2891 120.392 37.9969 120.667 37.6159C120.941 37.2348 121.137 36.7774 121.253 36.2439H123.124C123.018 37.1077 122.757 37.8858 122.339 38.5781C121.927 39.2641 121.38 39.8103 120.698 40.2168C120.022 40.617 119.235 40.8171 118.336 40.8171Z" stroke="#006666"/>
<path d="M131.153 25.878V27.7835H124.844V25.878H131.153ZM126.683 22.372H128.553V36.3201C128.553 36.9553 128.63 37.4317 128.783 37.7492C128.942 38.0605 129.143 38.2701 129.386 38.378C129.634 38.4797 129.896 38.5305 130.17 38.5305C130.377 38.5305 130.546 38.5178 130.678 38.4924C130.81 38.4606 130.916 38.4352 130.995 38.4162L131.375 40.436C131.248 40.4931 131.071 40.5503 130.844 40.6075C130.617 40.671 130.329 40.7027 129.98 40.7027C129.452 40.7027 128.934 40.5662 128.427 40.2931C127.925 40.0199 127.507 39.6039 127.174 39.045C126.847 38.486 126.683 37.781 126.683 36.9299V22.372Z" stroke="#006666"/>
<path d="M138.783 40.8171C137.683 40.8171 136.719 40.5027 135.889 39.8739C135.065 39.245 134.42 38.3653 133.955 37.2348C133.496 36.1042 133.266 34.783 133.266 33.2713C133.266 31.7469 133.496 30.4163 133.955 29.2793C134.42 28.1424 135.065 27.2595 135.889 26.6307C136.719 26.0019 137.683 25.6875 138.783 25.6875C139.882 25.6875 140.843 26.0019 141.668 26.6307C142.497 27.2595 143.142 28.1424 143.602 29.2793C144.067 30.4163 144.299 31.7469 144.299 33.2713C144.299 34.783 144.067 36.1042 143.602 37.2348C143.142 38.3653 142.497 39.245 141.668 39.8739C140.843 40.5027 139.882 40.8171 138.783 40.8171ZM138.783 38.7973C139.617 38.7973 140.304 38.54 140.843 38.0255C141.382 37.5111 141.781 36.8346 142.04 35.9962C142.299 35.1578 142.429 34.2495 142.429 33.2713C142.429 32.2932 142.299 31.3817 142.04 30.537C141.781 29.6922 141.382 29.0094 140.843 28.4886C140.304 27.9677 139.617 27.7073 138.783 27.7073C137.948 27.7073 137.261 27.9677 136.722 28.4886C136.183 29.0094 135.784 29.6922 135.525 30.537C135.266 31.3817 135.136 32.2932 135.136 33.2713C135.136 34.2495 135.266 35.1578 135.525 35.9962C135.784 36.8346 136.183 37.5111 136.722 38.0255C137.261 38.54 137.948 38.7973 138.783 38.7973Z" stroke="#006666"/>
<path d="M147.155 40.5122V25.878H148.962V28.0884H149.089C149.311 27.3643 149.712 26.7768 150.294 26.3258C150.875 25.8749 151.53 25.6494 152.259 25.6494C152.397 25.6494 152.569 25.6526 152.775 25.6589C152.981 25.6653 153.137 25.6748 153.242 25.6875V27.9741C153.179 27.955 153.034 27.9264 152.806 27.8883C152.584 27.8439 152.349 27.8216 152.101 27.8216C151.509 27.8216 150.981 27.9709 150.516 28.2694C150.056 28.5616 149.691 28.9681 149.422 29.4889C149.158 30.0034 149.025 30.591 149.025 31.2515V40.5122H147.155Z" stroke="#006666"/>
<path d="M155.485 40.5122H153.425L159.385 21H161.414L167.375 40.5122H165.314L160.463 24.0869H160.336L155.485 40.5122ZM156.246 32.8902H164.553V34.9863H156.246V32.8902Z" stroke="#006666"/>
<path d="M169.65 46V25.878H171.457V28.2027H171.679C171.817 27.9487 172.007 27.6247 172.25 27.2309C172.498 26.8308 172.852 26.4751 173.312 26.1639C173.777 25.8463 174.406 25.6875 175.199 25.6875C176.224 25.6875 177.127 25.9956 177.909 26.6117C178.691 27.2278 179.302 28.1011 179.74 29.2317C180.179 30.3623 180.398 31.6961 180.398 33.2332C180.398 34.783 180.179 36.1264 179.74 37.2633C179.302 38.3939 178.694 39.2704 177.917 39.8929C177.14 40.509 176.245 40.8171 175.23 40.8171C174.448 40.8171 173.822 40.6615 173.352 40.3502C172.881 40.0326 172.519 39.6738 172.266 39.2736C172.012 38.8671 171.817 38.5305 171.679 38.2637H171.521V46H169.65ZM171.489 33.1951C171.489 34.3003 171.624 35.2753 171.893 36.12C172.163 36.9585 172.556 37.6159 173.074 38.0922C173.592 38.5622 174.226 38.7973 174.977 38.7973C175.759 38.7973 176.411 38.5495 176.934 38.0541C177.463 37.5523 177.859 36.8791 178.123 36.0343C178.393 35.1832 178.528 34.2368 178.528 33.1951C178.528 32.1662 178.396 31.2388 178.131 30.4131C177.872 29.581 177.479 28.9237 176.95 28.4409C176.427 27.9519 175.769 27.7073 174.977 27.7073C174.216 27.7073 173.576 27.9392 173.058 28.4028C172.541 28.8601 172.149 29.5017 171.885 30.3274C171.621 31.1467 171.489 32.1026 171.489 33.1951Z" stroke="#006666"/>
<path d="M183.252 46V25.878H185.059V28.2027H185.281C185.418 27.9487 185.609 27.6247 185.852 27.2309C186.1 26.8308 186.454 26.4751 186.914 26.1639C187.379 25.8463 188.008 25.6875 188.8 25.6875C189.825 25.6875 190.729 25.9956 191.511 26.6117C192.293 27.2278 192.904 28.1011 193.342 29.2317C193.781 30.3623 194 31.6961 194 33.2332C194 34.783 193.781 36.1264 193.342 37.2633C192.904 38.3939 192.296 39.2704 191.519 39.8929C190.742 40.509 189.847 40.8171 188.832 40.8171C188.05 40.8171 187.424 40.6615 186.953 40.3502C186.483 40.0326 186.121 39.6738 185.867 39.2736C185.614 38.8671 185.418 38.5305 185.281 38.2637H185.122V46H183.252ZM185.091 33.1951C185.091 34.3003 185.225 35.2753 185.495 36.12C185.764 36.9585 186.158 37.6159 186.676 38.0922C187.194 38.5622 187.828 38.7973 188.578 38.7973C189.36 38.7973 190.013 38.5495 190.536 38.0541C191.065 37.5523 191.461 36.8791 191.725 36.0343C191.995 35.1832 192.129 34.2368 192.129 33.1951C192.129 32.1662 191.997 31.2388 191.733 30.4131C191.474 29.581 191.08 28.9237 190.552 28.4409C190.029 27.9519 189.371 27.7073 188.578 27.7073C187.817 27.7073 187.178 27.9392 186.66 28.4028C186.142 28.8601 185.751 29.5017 185.487 30.3274C185.223 31.1467 185.091 32.1026 185.091 33.1951Z" stroke="#006666"/>
</svg>
